<svg width="21" height="14" viewBox="0 0 21 14" fill="none" xmlns="http://www.w3.org/2000/svg">
<path d="M6.20455 5.79615C6.71087 5.79615 7.19645 5.5926 7.55448 5.23027C7.9125 4.86794 8.11364 4.37651 8.11364 3.8641C8.11364 3.35169 7.9125 2.86027 7.55448 2.49794C7.19645 2.13561 6.71087 1.93205 6.20455 1.93205H1.90909V5.79615H6.20455ZM7.15909 7.7282H1.90909V11.5923H7.15909C7.66541 11.5923 8.151 11.3888 8.50902 11.0264C8.86705 10.6641 9.06818 10.1727 9.06818 9.66025C9.06818 9.14784 8.86705 8.65642 8.50902 8.29409C8.151 7.93176 7.66541 7.7282 7.15909 7.7282ZM9.12832 6.34872C9.84378 6.7841 10.3985 7.4448 10.7076 8.22965C11.0167 9.01449 11.0631 9.88023 10.8397 10.6943C10.6163 11.5084 10.1354 12.2259 9.47063 12.737C8.80589 13.2482 7.99394 13.5247 7.15909 13.5244H0V1.70022e-08H6.20455C6.93158 -6.89919e-05 7.64353 0.209934 8.25667 0.605319C8.86981 1.0007 9.35867 1.56503 9.66576 2.23195C9.97285 2.89888 10.0854 3.64067 9.99021 4.37011C9.895 5.09956 9.59598 5.78633 9.12832 6.34969M13.8409 0.966025H19.0909V2.41506H13.8409V0.966025ZM21 9.17724H13.8409V9.41875C13.8407 10.0155 14.039 10.5949 14.4039 11.0637C14.7688 11.5325 15.2791 11.8632 15.8524 12.0027C16.4257 12.1422 17.0287 12.0822 17.5643 11.8325C18.0998 11.5828 18.5367 11.1579 18.8045 10.6263H20.8415C20.5507 11.6969 19.8863 12.6246 18.9714 13.2374C18.0565 13.8503 16.9532 14.1068 15.8657 13.9594C14.7783 13.812 13.7805 13.2707 13.0572 12.4359C12.3338 11.601 11.934 10.5291 11.9318 9.41875V7.96971C11.9318 6.75273 12.4095 5.5856 13.2598 4.72507C14.1101 3.86453 15.2634 3.38109 16.4659 3.38109C17.6684 3.38109 18.8217 3.86453 19.672 4.72507C20.5223 5.5856 21 6.75273 21 7.96971V9.17724ZM18.9916 7.24519C18.8353 6.68923 18.5042 6.2 18.0484 5.85166C17.5926 5.50332 17.0371 5.31486 16.4659 5.31486C15.8948 5.31486 15.3392 5.50332 14.8834 5.85166C14.4276 6.2 14.0965 6.68923 13.9402 7.24519H18.9916Z" fill="#8B5CF6"/>
</svg>
