<svg width="20" height="20" viewBox="0 0 20 20" fill="none" xmlns="http://www.w3.org/2000/svg">
<path d="M1.05845 5.9686C1.10276 5.0004 1.25436 4.37596 1.45938 3.84591L1.46214 3.83859C1.6653 3.29922 1.98357 2.8106 2.39478 2.40674L2.40055 2.40107L2.40622 2.3953C2.81041 1.98356 3.2992 1.66561 3.8381 1.46298L3.8474 1.45942C4.37624 1.25376 4.99946 1.10273 5.96847 1.05843M1.05845 5.9686C1.01187 7.00309 1 7.32376 1 10.0059C1 12.6888 1.01122 13.0087 1.05843 14.0434M1.05845 5.9686L1.05845 6.22955M1.46298 16.1738C1.66561 16.7127 1.98356 17.2015 2.3953 17.6057L2.40106 17.6113L2.40672 17.6171C2.8106 18.0283 3.29923 18.3466 3.83861 18.5497L3.84666 18.5528C4.37598 18.7581 4.99951 18.9091 5.96847 18.9534M1.46298 16.1738L1.45942 16.1645C1.25377 15.6356 1.10273 15.0124 1.05843 14.0434M1.46298 16.1738L1.45083 16.1098M1.05843 14.0434L1.07429 14.1269M1.05843 14.0434L1.05843 13.7818M1.45083 16.1098L1.07429 14.1269M1.45083 16.1098C1.29091 15.6873 1.12624 15.0978 1.07429 14.1269M1.45083 16.1098C1.45644 16.1246 1.46204 16.1392 1.46764 16.1536C1.67045 16.7004 1.99179 17.1954 2.40856 17.6032C2.81621 18.0199 3.31108 18.3412 3.85763 18.544C4.29625 18.7149 4.91429 18.8934 5.96832 18.9417C7.03202 18.9901 7.36065 19 10.0059 19C12.6512 19 12.9801 18.9901 14.0438 18.9417C15.0992 18.8933 15.7165 18.7138 16.1535 18.5443C16.7004 18.3416 17.1956 18.0202 17.6033 17.6032C18.02 17.1956 18.3412 16.7007 18.544 16.1542C18.7149 15.7156 18.8934 15.0976 18.9417 14.0435C18.9901 12.9798 19 12.6506 19 10.0059C19 7.36131 18.9901 7.03174 18.9417 5.96805C18.8931 4.9072 18.7119 4.28896 18.5416 3.8515C18.319 3.27674 18.0366 2.84204 17.6026 2.40805C17.1695 1.97578 16.736 1.69328 16.1608 1.47041C15.7218 1.29877 15.1031 1.11871 14.0438 1.07017C13.9517 1.06597 13.8651 1.06207 13.782 1.05844M1.07429 14.1269C1.07283 14.0995 1.07145 14.0718 1.07017 14.0438C1.06597 13.9516 1.06206 13.8649 1.05843 13.7818M5.96847 1.05843C7.0032 1.01122 7.32376 1 10.0059 1C12.6881 1 13.0085 1.01186 14.043 1.05844M5.96847 1.05843L6.23009 1.05843M14.043 1.05844L13.782 1.05844M14.043 1.05844C15.0113 1.10273 15.6359 1.25431 16.166 1.45935L16.1733 1.46214C16.7127 1.6653 17.2013 1.98357 17.6051 2.39478L17.6107 2.40049L17.6165 2.4061C18.0277 2.81 18.346 3.29875 18.549 3.83827L18.5524 3.8474C18.7581 4.37624 18.9091 4.99946 18.9534 5.96847M6.23009 1.05843L13.782 1.05844M6.23009 1.05843C7.10627 1.02012 7.59055 1.01187 10.0059 1.01187C12.4215 1.01187 12.9057 1.02012 13.782 1.05844M6.23009 1.05843C6.14693 1.06206 6.06025 1.06597 5.96805 1.07017C4.9127 1.11853 4.29538 1.29808 3.85832 1.4676C3.3094 1.67108 2.81261 1.99413 2.40396 2.41335C1.97402 2.84506 1.6926 3.27768 1.47044 3.85101C1.29879 4.29003 1.1187 4.90897 1.07015 5.96832C1.06597 6.06023 1.06208 6.14665 1.05845 6.22955M18.9534 14.0434C18.9091 15.0124 18.7581 15.6359 18.5528 16.1652L18.5497 16.1733C18.3466 16.7127 18.0283 17.2013 17.6171 17.6051L17.6113 17.6108L17.6057 17.6166C17.2015 18.0283 16.7127 18.3463 16.1738 18.5489L16.1645 18.5524C15.6356 18.7581 15.0124 18.9091 14.0434 18.9534M1.05843 13.7818C1.02012 12.9056 1.01187 12.4213 1.01187 10.0059C1.01187 7.58981 1.02011 7.10621 1.05845 6.22955M1.05843 13.7818L1.05845 6.22955M8.40417 13.8729C8.912 14.0833 9.45628 14.1916 10.0059 14.1916C11.116 14.1916 12.1807 13.7506 12.9656 12.9656C13.7506 12.1807 14.1916 11.116 14.1916 10.0059C14.1916 8.89584 13.7506 7.83121 12.9656 7.04625C12.1807 6.26129 11.116 5.82031 10.0059 5.82031C9.45628 5.82031 8.91199 5.92857 8.40417 6.13892C7.89635 6.34927 7.43493 6.65758 7.04626 7.04625C6.65759 7.43492 6.34927 7.89634 6.13893 8.40416C5.92858 8.91199 5.82032 9.45627 5.82032 10.0059C5.82032 10.5556 5.92858 11.0999 6.13893 11.6077C6.34927 12.1155 6.65759 12.5769 7.04626 12.9656C7.43493 13.3543 7.89635 13.6626 8.40417 13.8729ZM7.03693 7.03692C7.82436 6.24949 8.89235 5.80712 10.0059 5.80712C11.1195 5.80712 12.1875 6.24949 12.9749 7.03692C13.7624 7.82435 14.2048 8.89234 14.2048 10.0059C14.2048 11.1195 13.7624 12.1875 12.9749 12.9749C12.1875 13.7624 11.1195 14.2047 10.0059 14.2047C8.89234 14.2047 7.82436 13.7624 7.03693 12.9749C6.2495 12.1875 5.80713 11.1195 5.80713 10.0059C5.80713 8.89234 6.2495 7.82435 7.03693 7.03692ZM16.5691 4.82954C16.5691 5.14827 16.4425 5.45395 16.2171 5.67933C15.9917 5.90471 15.686 6.03132 15.3673 6.03132C15.0486 6.03132 14.7429 5.90471 14.5175 5.67933C14.2921 5.45395 14.1655 5.14827 14.1655 4.82954C14.1655 4.51081 14.2921 4.20513 14.5175 3.97975C14.7429 3.75438 15.0486 3.62776 15.3673 3.62776C15.686 3.62776 15.9917 3.75438 16.2171 3.97975C16.4425 4.20513 16.5691 4.51081 16.5691 4.82954Z" stroke="#8B5CF6" stroke-width="1.6" stroke-linejoin="round"/>
</svg>
