<svg width="17" height="16" viewBox="0 0 17 16" fill="none" xmlns="http://www.w3.org/2000/svg">
<path d="M0 1.85859C0 1.31985 0.191447 0.87541 0.574324 0.525253C0.957202 0.175079 1.45496 0 2.06757 0C2.66925 0 3.15604 0.17238 3.52799 0.517172C3.91087 0.872727 4.10232 1.33602 4.10232 1.90707C4.10232 2.42424 3.91635 2.85521 3.5444 3.2C3.16152 3.55556 2.6583 3.73333 2.03475 3.73333H2.01834C1.41666 3.73333 0.929864 3.55556 0.557915 3.2C0.185966 2.84444 0 2.3973 0 1.85859ZM0.21332 16V5.20404H3.85618V16H0.21332ZM5.87452 16H9.51737V9.97172C9.51737 9.5946 9.56114 9.30369 9.64865 9.09899C9.8018 8.73265 10.0343 8.42289 10.346 8.1697C10.6578 7.91649 11.0489 7.7899 11.5193 7.7899C12.7445 7.7899 13.3571 8.60336 13.3571 10.2303V16H17V9.8101C17 8.21548 16.6171 7.00606 15.8514 6.18182C15.0856 5.35758 14.0737 4.94545 12.8156 4.94545C11.4044 4.94545 10.305 5.54343 9.51737 6.73939V6.77172H9.50097L9.51737 6.73939V5.20404H5.87452C5.89639 5.54882 5.90734 6.62086 5.90734 8.4202C5.90734 10.2195 5.89639 12.7461 5.87452 16Z" fill="#8B5CF6"/>
</svg>
