<svg width="18" height="18" viewBox="0 0 18 18" fill="none" xmlns="http://www.w3.org/2000/svg">
<path d="M9 0C13.9707 0 18 4.0293 18 9C18 13.9707 13.9707 18 9 18C7.46816 18.0022 5.96132 17.6118 4.62331 16.866L4.34881 16.7058L1.62001 17.5086C1.47151 17.5523 1.3143 17.5575 1.16327 17.5234C1.01225 17.4894 0.872414 17.4174 0.757031 17.3142C0.641648 17.2109 0.554537 17.08 0.503956 16.9337C0.453376 16.7873 0.441002 16.6305 0.468008 16.4781L0.491408 16.38L1.29421 13.6512C0.445471 12.2484 -0.00217264 10.6396 7.92858e-06 9C7.92858e-06 4.0293 4.02931 0 9 0ZM9 1.8C7.71087 1.79977 6.44532 2.14565 5.3355 2.80153C4.22569 3.45741 3.31233 4.39924 2.69079 5.52864C2.06926 6.65805 1.76235 7.93362 1.80213 9.22214C1.8419 10.5107 2.2269 11.7649 2.91691 12.8538C3.09511 13.1346 3.17161 13.4802 3.11131 13.8231L3.07621 13.9698L2.67931 15.3207L4.03021 14.9238C4.41991 14.8086 4.8249 14.8788 5.1462 15.0831C6.0897 15.6805 7.15922 16.0503 8.27023 16.1631C9.38124 16.276 10.5033 16.1289 11.5476 15.7334C12.592 15.338 13.5301 14.705 14.2877 13.8845C15.0453 13.0641 15.6016 12.0787 15.9128 11.0062C16.224 9.93369 16.2814 8.80351 16.0805 7.70499C15.8797 6.60648 15.426 5.56974 14.7555 4.67674C14.085 3.78373 13.2159 3.05895 12.217 2.55967C11.2181 2.0604 10.1167 1.80032 9 1.8ZM6.3918 4.6656C6.49145 4.62245 6.60061 4.60598 6.70854 4.61782C6.81648 4.62965 6.91948 4.66938 7.0074 4.7331C7.461 5.0643 7.821 5.5089 8.1306 5.9427L8.4249 6.3693L8.5626 6.5718C8.64205 6.68797 8.68105 6.82706 8.67357 6.96761C8.66608 7.10815 8.61254 7.24232 8.5212 7.3494L8.4537 7.4178L7.6221 8.0352C7.58208 8.06418 7.55391 8.10668 7.54283 8.15483C7.53174 8.20299 7.53848 8.25353 7.5618 8.2971C7.7508 8.6391 8.0847 9.14939 8.4681 9.53279C8.8524 9.91619 9.3861 10.2726 9.7515 10.4823C9.8307 10.5273 9.9261 10.5129 9.9909 10.4544L10.0251 10.4139L10.566 9.59039C10.6653 9.45811 10.8119 9.36942 10.9752 9.3429C11.1385 9.31639 11.3057 9.35413 11.4417 9.44819L11.9304 9.78929C12.4164 10.1358 12.8835 10.5084 13.2534 10.9809C13.3222 11.0695 13.3659 11.175 13.38 11.2863C13.3941 11.3976 13.378 11.5106 13.3335 11.6136C12.9771 12.4452 12.0744 13.1535 11.1366 13.1193L10.9935 13.1103L10.8216 13.0941C10.7892 13.0902 10.7568 13.086 10.7244 13.0815L10.5102 13.0455C9.6786 12.8889 8.3457 12.4173 6.9642 11.0367C5.5836 9.65519 5.11201 8.3223 4.95541 7.4907L4.91941 7.2765L4.89691 7.0893L4.88521 6.9318C4.88378 6.90931 4.88258 6.88681 4.88161 6.8643C4.8474 5.9247 5.55931 5.022 6.3918 4.6656Z" fill="#8B5CF6"/>
</svg>
