<svg width="95" height="91" viewBox="0 0 95 91" fill="none" xmlns="http://www.w3.org/2000/svg">
<g filter="url(#filter0_d_1303_8899)">
<path d="M81.9512 2.64844C86.6109 2.64844 90.3885 6.42623 90.3887 11.0859V75.7764C90.3885 80.4361 86.6109 84.2139 81.9512 84.2139H13.0566C8.39703 84.2137 4.6193 80.436 4.61914 75.7764V11.0859C4.6193 6.42633 8.39703 2.6486 13.0566 2.64844H81.9512Z" fill="white" stroke="#747474" stroke-width="0.702308"/>
<path d="M79.5733 47.2089C79.4756 47.2089 79.3779 47.274 79.3127 47.4365C78.6611 49.3224 77.7489 50.4604 76.9995 50.4604C76.576 50.4604 76.4131 49.9727 76.4131 49.2574C76.4131 47.404 77.5208 43.4697 78.0747 41.6489C78.1398 41.4213 78.1724 41.2262 78.1724 41.0637C78.1724 40.5434 77.8792 40.2833 77.1624 40.2833C76.4131 40.2833 75.566 40.5759 74.7841 41.9741C74.5235 40.7385 73.6764 40.2183 72.5035 40.2183C71.1677 40.2183 69.8645 41.0962 68.7894 42.4943C67.7143 43.8924 66.4436 44.3476 65.4988 44.12C66.183 42.4618 66.4436 41.1937 66.4436 40.2833C66.4436 38.8201 65.7269 37.9422 64.554 37.9422C62.7947 37.9422 61.7847 39.633 61.7847 41.3888C61.7847 42.7544 62.4037 44.1526 63.7721 44.8354C62.6318 47.404 60.9702 49.7451 60.3186 49.7451C59.5041 49.7451 59.2435 45.7458 59.3087 42.8845C59.3412 41.2587 59.4715 41.1612 59.4715 40.6735C59.4715 40.3808 59.2761 40.1858 58.5267 40.1858C56.8 40.1858 56.2461 41.6489 56.181 43.3397C56.1484 43.99 56.0507 44.6078 55.8878 45.2255C55.171 47.7942 53.6723 49.7776 52.6949 49.7776C52.2388 49.7776 52.1085 49.3224 52.1085 48.7371C52.1085 46.8838 53.1511 44.5427 53.1511 42.5593C53.1511 41.0962 52.4995 40.1858 51.294 40.1858C49.8605 40.1858 48.0034 41.8765 46.2115 45.0304C46.798 42.6244 47.026 40.2833 45.2993 40.2833C44.9083 40.2833 44.55 40.3808 44.2242 40.5759C43.9961 40.6735 43.8658 40.9011 43.8658 41.1612C44.0287 43.7299 41.7807 50.3304 39.663 50.3304C39.272 50.3304 39.0765 49.9077 39.0765 49.2249C39.0765 47.3715 40.1843 43.4372 40.7381 41.6164C40.8033 41.3888 40.8359 41.1937 40.8359 40.9986C40.8359 40.5109 40.5426 40.2508 39.8259 40.2508C39.0765 40.2508 38.2295 40.5434 37.4475 41.9416C37.1543 40.706 36.3398 40.1858 35.167 40.1858C33.2447 40.1858 31.127 42.2017 30.1822 44.8354C28.9116 48.347 26.403 51.761 22.9821 51.761C19.887 51.761 18.258 49.1923 18.258 45.128C18.258 39.2428 22.5911 34.4632 25.7839 34.4632C27.3152 34.4632 28.032 35.4386 28.032 36.9343C28.032 38.7551 27.022 39.568 27.022 40.2833C27.022 40.4784 27.1849 40.706 27.5433 40.706C28.9442 40.706 30.5732 39.0803 30.5732 36.8367C30.5732 34.5932 28.8139 33 25.621 33C20.3105 33 15 38.2999 15 45.128C15 50.558 17.6716 53.8094 22.2979 53.8094C25.4581 53.8094 28.2274 51.3708 29.6935 48.5095C29.8564 50.8831 30.9316 52.1187 32.5931 52.1187C34.0592 52.1187 35.2321 51.2408 36.1443 49.7126C36.5027 51.3058 37.415 52.0861 38.6204 52.0861C39.9888 52.0861 41.1617 51.2082 42.2368 49.615C42.2368 50.8831 42.4974 52.0861 43.6051 52.0861C44.1264 52.0861 44.7454 51.9561 44.8432 51.5009C46.0161 46.7212 48.8831 42.7869 49.7627 42.7869C50.0234 42.7869 50.0885 43.0471 50.0885 43.3397C50.0885 44.6403 49.1763 47.3065 49.1763 48.9972C49.1763 50.8506 49.9582 52.0536 51.5872 52.0536C53.3791 52.0536 55.2036 49.8751 56.409 46.6562C56.8 49.6475 57.6145 52.0536 58.8851 52.0536C60.4489 52.0536 63.2834 48.7371 64.9776 45.2255C65.6291 45.3231 66.6391 45.2906 67.6165 44.6078C67.193 45.6482 66.9649 46.7862 66.9649 47.8917C66.9649 51.1432 68.5288 52.0536 69.8645 52.0536C71.3306 52.0536 72.5035 51.1757 73.4157 49.6475C73.709 51.0132 74.4909 52.0211 75.8918 52.0211C78.0747 52.0211 79.9969 49.7776 79.9969 47.9243C80.0295 47.5341 79.8014 47.2089 79.5733 47.2089ZM33.9615 50.2978C33.0818 50.2978 32.7235 49.4199 32.7235 48.0868C32.7235 45.7783 34.3199 41.909 35.9814 41.909C36.6982 41.909 36.9914 42.7544 36.9914 43.8274C36.9914 46.1685 35.4928 50.2978 33.9615 50.2978ZM64.3585 43.4047C63.8373 42.7869 63.6418 41.909 63.6418 41.1612C63.6418 40.2183 64.0002 39.4379 64.3911 39.4379C64.7821 39.4379 64.945 39.8281 64.945 40.4134C64.9124 41.3238 64.5866 42.7219 64.3585 43.4047ZM71.2329 50.2978C70.3532 50.2978 69.9949 49.2574 69.9949 48.0868C69.9949 45.8433 71.5913 41.909 73.2528 41.909C73.9696 41.909 74.2302 42.7544 74.2302 43.8274C74.2628 46.1685 72.7967 50.2978 71.2329 50.2978Z" fill="url(#paint0_linear_1303_8899)"/>
<path d="M79.5733 47.2089C79.4756 47.2089 79.3779 47.274 79.3127 47.4365C78.6611 49.3224 77.7489 50.4604 76.9995 50.4604C76.576 50.4604 76.4131 49.9727 76.4131 49.2574C76.4131 47.404 77.5208 43.4697 78.0747 41.6489C78.1398 41.4213 78.1724 41.2262 78.1724 41.0637C78.1724 40.5434 77.8792 40.2833 77.1624 40.2833C76.4131 40.2833 75.566 40.5759 74.7841 41.9741C74.5235 40.7385 73.6764 40.2183 72.5035 40.2183C71.1677 40.2183 69.8645 41.0962 68.7894 42.4943C67.7143 43.8924 66.4436 44.3476 65.4988 44.12C66.183 42.4618 66.4436 41.1937 66.4436 40.2833C66.4436 38.8201 65.7269 37.9422 64.554 37.9422C62.7947 37.9422 61.7847 39.633 61.7847 41.3888C61.7847 42.7544 62.4037 44.1526 63.7721 44.8354C62.6318 47.404 60.9702 49.7451 60.3186 49.7451C59.5041 49.7451 59.2435 45.7458 59.3087 42.8845C59.3412 41.2587 59.4715 41.1612 59.4715 40.6735C59.4715 40.3808 59.2761 40.1858 58.5267 40.1858C56.8 40.1858 56.2461 41.6489 56.181 43.3397C56.1484 43.99 56.0507 44.6078 55.8878 45.2255C55.171 47.7942 53.6723 49.7776 52.6949 49.7776C52.2388 49.7776 52.1085 49.3224 52.1085 48.7371C52.1085 46.8838 53.1511 44.5427 53.1511 42.5593C53.1511 41.0962 52.4995 40.1858 51.294 40.1858C49.8605 40.1858 48.0034 41.8765 46.2115 45.0304C46.798 42.6244 47.026 40.2833 45.2993 40.2833C44.9083 40.2833 44.55 40.3808 44.2242 40.5759C43.9961 40.6735 43.8658 40.9011 43.8658 41.1612C44.0287 43.7299 41.7807 50.3304 39.663 50.3304C39.272 50.3304 39.0765 49.9077 39.0765 49.2249C39.0765 47.3715 40.1843 43.4372 40.7381 41.6164C40.8033 41.3888 40.8359 41.1937 40.8359 40.9986C40.8359 40.5109 40.5426 40.2508 39.8259 40.2508C39.0765 40.2508 38.2295 40.5434 37.4475 41.9416C37.1543 40.706 36.3398 40.1858 35.167 40.1858C33.2447 40.1858 31.127 42.2017 30.1822 44.8354C28.9116 48.347 26.403 51.761 22.9821 51.761C19.887 51.761 18.258 49.1923 18.258 45.128C18.258 39.2428 22.5911 34.4632 25.7839 34.4632C27.3152 34.4632 28.032 35.4386 28.032 36.9343C28.032 38.7551 27.022 39.568 27.022 40.2833C27.022 40.4784 27.1849 40.706 27.5433 40.706C28.9442 40.706 30.5732 39.0803 30.5732 36.8367C30.5732 34.5932 28.8139 33 25.621 33C20.3105 33 15 38.2999 15 45.128C15 50.558 17.6716 53.8094 22.2979 53.8094C25.4581 53.8094 28.2274 51.3708 29.6935 48.5095C29.8564 50.8831 30.9316 52.1187 32.5931 52.1187C34.0592 52.1187 35.2321 51.2408 36.1443 49.7126C36.5027 51.3058 37.415 52.0861 38.6204 52.0861C39.9888 52.0861 41.1617 51.2082 42.2368 49.615C42.2368 50.8831 42.4974 52.0861 43.6051 52.0861C44.1264 52.0861 44.7454 51.9561 44.8432 51.5009C46.0161 46.7212 48.8831 42.7869 49.7627 42.7869C50.0234 42.7869 50.0885 43.0471 50.0885 43.3397C50.0885 44.6403 49.1763 47.3065 49.1763 48.9972C49.1763 50.8506 49.9582 52.0536 51.5872 52.0536C53.3791 52.0536 55.2036 49.8751 56.409 46.6562C56.8 49.6475 57.6145 52.0536 58.8851 52.0536C60.4489 52.0536 63.2834 48.7371 64.9776 45.2255C65.6291 45.3231 66.6391 45.2906 67.6165 44.6078C67.193 45.6482 66.9649 46.7862 66.9649 47.8917C66.9649 51.1432 68.5288 52.0536 69.8645 52.0536C71.3306 52.0536 72.5035 51.1757 73.4157 49.6475C73.709 51.0132 74.4909 52.0211 75.8918 52.0211C78.0747 52.0211 79.9969 49.7776 79.9969 47.9243C80.0295 47.5341 79.8014 47.2089 79.5733 47.2089ZM33.9615 50.2978C33.0818 50.2978 32.7235 49.4199 32.7235 48.0868C32.7235 45.7783 34.3199 41.909 35.9814 41.909C36.6982 41.909 36.9914 42.7544 36.9914 43.8274C36.9914 46.1685 35.4928 50.2978 33.9615 50.2978ZM64.3585 43.4047C63.8373 42.7869 63.6418 41.909 63.6418 41.1612C63.6418 40.2183 64.0002 39.4379 64.3911 39.4379C64.7821 39.4379 64.945 39.8281 64.945 40.4134C64.9124 41.3238 64.5866 42.7219 64.3585 43.4047ZM71.2329 50.2978C70.3532 50.2978 69.9949 49.2574 69.9949 48.0868C69.9949 45.8433 71.5913 41.909 73.2528 41.909C73.9696 41.909 74.2302 42.7544 74.2302 43.8274C74.2628 46.1685 72.7967 50.2978 71.2329 50.2978Z" fill="url(#paint1_radial_1303_8899)"/>
<path d="M79.5733 47.2089C79.4756 47.2089 79.3779 47.274 79.3127 47.4365C78.6611 49.3224 77.7489 50.4604 76.9995 50.4604C76.576 50.4604 76.4131 49.9727 76.4131 49.2574C76.4131 47.404 77.5208 43.4697 78.0747 41.6489C78.1398 41.4213 78.1724 41.2262 78.1724 41.0637C78.1724 40.5434 77.8792 40.2833 77.1624 40.2833C76.4131 40.2833 75.566 40.5759 74.7841 41.9741C74.5235 40.7385 73.6764 40.2183 72.5035 40.2183C71.1677 40.2183 69.8645 41.0962 68.7894 42.4943C67.7143 43.8924 66.4436 44.3476 65.4988 44.12C66.183 42.4618 66.4436 41.1937 66.4436 40.2833C66.4436 38.8201 65.7269 37.9422 64.554 37.9422C62.7947 37.9422 61.7847 39.633 61.7847 41.3888C61.7847 42.7544 62.4037 44.1526 63.7721 44.8354C62.6318 47.404 60.9702 49.7451 60.3186 49.7451C59.5041 49.7451 59.2435 45.7458 59.3087 42.8845C59.3412 41.2587 59.4715 41.1612 59.4715 40.6735C59.4715 40.3808 59.2761 40.1858 58.5267 40.1858C56.8 40.1858 56.2461 41.6489 56.181 43.3397C56.1484 43.99 56.0507 44.6078 55.8878 45.2255C55.171 47.7942 53.6723 49.7776 52.6949 49.7776C52.2388 49.7776 52.1085 49.3224 52.1085 48.7371C52.1085 46.8838 53.1511 44.5427 53.1511 42.5593C53.1511 41.0962 52.4995 40.1858 51.294 40.1858C49.8605 40.1858 48.0034 41.8765 46.2115 45.0304C46.798 42.6244 47.026 40.2833 45.2993 40.2833C44.9083 40.2833 44.55 40.3808 44.2242 40.5759C43.9961 40.6735 43.8658 40.9011 43.8658 41.1612C44.0287 43.7299 41.7807 50.3304 39.663 50.3304C39.272 50.3304 39.0765 49.9077 39.0765 49.2249C39.0765 47.3715 40.1843 43.4372 40.7381 41.6164C40.8033 41.3888 40.8359 41.1937 40.8359 40.9986C40.8359 40.5109 40.5426 40.2508 39.8259 40.2508C39.0765 40.2508 38.2295 40.5434 37.4475 41.9416C37.1543 40.706 36.3398 40.1858 35.167 40.1858C33.2447 40.1858 31.127 42.2017 30.1822 44.8354C28.9116 48.347 26.403 51.761 22.9821 51.761C19.887 51.761 18.258 49.1923 18.258 45.128C18.258 39.2428 22.5911 34.4632 25.7839 34.4632C27.3152 34.4632 28.032 35.4386 28.032 36.9343C28.032 38.7551 27.022 39.568 27.022 40.2833C27.022 40.4784 27.1849 40.706 27.5433 40.706C28.9442 40.706 30.5732 39.0803 30.5732 36.8367C30.5732 34.5932 28.8139 33 25.621 33C20.3105 33 15 38.2999 15 45.128C15 50.558 17.6716 53.8094 22.2979 53.8094C25.4581 53.8094 28.2274 51.3708 29.6935 48.5095C29.8564 50.8831 30.9316 52.1187 32.5931 52.1187C34.0592 52.1187 35.2321 51.2408 36.1443 49.7126C36.5027 51.3058 37.415 52.0861 38.6204 52.0861C39.9888 52.0861 41.1617 51.2082 42.2368 49.615C42.2368 50.8831 42.4974 52.0861 43.6051 52.0861C44.1264 52.0861 44.7454 51.9561 44.8432 51.5009C46.0161 46.7212 48.8831 42.7869 49.7627 42.7869C50.0234 42.7869 50.0885 43.0471 50.0885 43.3397C50.0885 44.6403 49.1763 47.3065 49.1763 48.9972C49.1763 50.8506 49.9582 52.0536 51.5872 52.0536C53.3791 52.0536 55.2036 49.8751 56.409 46.6562C56.8 49.6475 57.6145 52.0536 58.8851 52.0536C60.4489 52.0536 63.2834 48.7371 64.9776 45.2255C65.6291 45.3231 66.6391 45.2906 67.6165 44.6078C67.193 45.6482 66.9649 46.7862 66.9649 47.8917C66.9649 51.1432 68.5288 52.0536 69.8645 52.0536C71.3306 52.0536 72.5035 51.1757 73.4157 49.6475C73.709 51.0132 74.4909 52.0211 75.8918 52.0211C78.0747 52.0211 79.9969 49.7776 79.9969 47.9243C80.0295 47.5341 79.8014 47.2089 79.5733 47.2089ZM33.9615 50.2978C33.0818 50.2978 32.7235 49.4199 32.7235 48.0868C32.7235 45.7783 34.3199 41.909 35.9814 41.909C36.6982 41.909 36.9914 42.7544 36.9914 43.8274C36.9914 46.1685 35.4928 50.2978 33.9615 50.2978ZM64.3585 43.4047C63.8373 42.7869 63.6418 41.909 63.6418 41.1612C63.6418 40.2183 64.0002 39.4379 64.3911 39.4379C64.7821 39.4379 64.945 39.8281 64.945 40.4134C64.9124 41.3238 64.5866 42.7219 64.3585 43.4047ZM71.2329 50.2978C70.3532 50.2978 69.9949 49.2574 69.9949 48.0868C69.9949 45.8433 71.5913 41.909 73.2528 41.909C73.9696 41.909 74.2302 42.7544 74.2302 43.8274C74.2628 46.1685 72.7967 50.2978 71.2329 50.2978Z" fill="url(#paint2_radial_1303_8899)"/>
<path d="M79.5733 47.2089C79.4756 47.2089 79.3779 47.274 79.3127 47.4365C78.6611 49.3224 77.7489 50.4604 76.9995 50.4604C76.576 50.4604 76.4131 49.9727 76.4131 49.2574C76.4131 47.404 77.5208 43.4697 78.0747 41.6489C78.1398 41.4213 78.1724 41.2262 78.1724 41.0637C78.1724 40.5434 77.8792 40.2833 77.1624 40.2833C76.4131 40.2833 75.566 40.5759 74.7841 41.9741C74.5235 40.7385 73.6764 40.2183 72.5035 40.2183C71.1677 40.2183 69.8645 41.0962 68.7894 42.4943C67.7143 43.8924 66.4436 44.3476 65.4988 44.12C66.183 42.4618 66.4436 41.1937 66.4436 40.2833C66.4436 38.8201 65.7269 37.9422 64.554 37.9422C62.7947 37.9422 61.7847 39.633 61.7847 41.3888C61.7847 42.7544 62.4037 44.1526 63.7721 44.8354C62.6318 47.404 60.9702 49.7451 60.3186 49.7451C59.5041 49.7451 59.2435 45.7458 59.3087 42.8845C59.3412 41.2587 59.4715 41.1612 59.4715 40.6735C59.4715 40.3808 59.2761 40.1858 58.5267 40.1858C56.8 40.1858 56.2461 41.6489 56.181 43.3397C56.1484 43.99 56.0507 44.6078 55.8878 45.2255C55.171 47.7942 53.6723 49.7776 52.6949 49.7776C52.2388 49.7776 52.1085 49.3224 52.1085 48.7371C52.1085 46.8838 53.1511 44.5427 53.1511 42.5593C53.1511 41.0962 52.4995 40.1858 51.294 40.1858C49.8605 40.1858 48.0034 41.8765 46.2115 45.0304C46.798 42.6244 47.026 40.2833 45.2993 40.2833C44.9083 40.2833 44.55 40.3808 44.2242 40.5759C43.9961 40.6735 43.8658 40.9011 43.8658 41.1612C44.0287 43.7299 41.7807 50.3304 39.663 50.3304C39.272 50.3304 39.0765 49.9077 39.0765 49.2249C39.0765 47.3715 40.1843 43.4372 40.7381 41.6164C40.8033 41.3888 40.8359 41.1937 40.8359 40.9986C40.8359 40.5109 40.5426 40.2508 39.8259 40.2508C39.0765 40.2508 38.2295 40.5434 37.4475 41.9416C37.1543 40.706 36.3398 40.1858 35.167 40.1858C33.2447 40.1858 31.127 42.2017 30.1822 44.8354C28.9116 48.347 26.403 51.761 22.9821 51.761C19.887 51.761 18.258 49.1923 18.258 45.128C18.258 39.2428 22.5911 34.4632 25.7839 34.4632C27.3152 34.4632 28.032 35.4386 28.032 36.9343C28.032 38.7551 27.022 39.568 27.022 40.2833C27.022 40.4784 27.1849 40.706 27.5433 40.706C28.9442 40.706 30.5732 39.0803 30.5732 36.8367C30.5732 34.5932 28.8139 33 25.621 33C20.3105 33 15 38.2999 15 45.128C15 50.558 17.6716 53.8094 22.2979 53.8094C25.4581 53.8094 28.2274 51.3708 29.6935 48.5095C29.8564 50.8831 30.9316 52.1187 32.5931 52.1187C34.0592 52.1187 35.2321 51.2408 36.1443 49.7126C36.5027 51.3058 37.415 52.0861 38.6204 52.0861C39.9888 52.0861 41.1617 51.2082 42.2368 49.615C42.2368 50.8831 42.4974 52.0861 43.6051 52.0861C44.1264 52.0861 44.7454 51.9561 44.8432 51.5009C46.0161 46.7212 48.8831 42.7869 49.7627 42.7869C50.0234 42.7869 50.0885 43.0471 50.0885 43.3397C50.0885 44.6403 49.1763 47.3065 49.1763 48.9972C49.1763 50.8506 49.9582 52.0536 51.5872 52.0536C53.3791 52.0536 55.2036 49.8751 56.409 46.6562C56.8 49.6475 57.6145 52.0536 58.8851 52.0536C60.4489 52.0536 63.2834 48.7371 64.9776 45.2255C65.6291 45.3231 66.6391 45.2906 67.6165 44.6078C67.193 45.6482 66.9649 46.7862 66.9649 47.8917C66.9649 51.1432 68.5288 52.0536 69.8645 52.0536C71.3306 52.0536 72.5035 51.1757 73.4157 49.6475C73.709 51.0132 74.4909 52.0211 75.8918 52.0211C78.0747 52.0211 79.9969 49.7776 79.9969 47.9243C80.0295 47.5341 79.8014 47.2089 79.5733 47.2089ZM33.9615 50.2978C33.0818 50.2978 32.7235 49.4199 32.7235 48.0868C32.7235 45.7783 34.3199 41.909 35.9814 41.909C36.6982 41.909 36.9914 42.7544 36.9914 43.8274C36.9914 46.1685 35.4928 50.2978 33.9615 50.2978ZM64.3585 43.4047C63.8373 42.7869 63.6418 41.909 63.6418 41.1612C63.6418 40.2183 64.0002 39.4379 64.3911 39.4379C64.7821 39.4379 64.945 39.8281 64.945 40.4134C64.9124 41.3238 64.5866 42.7219 64.3585 43.4047ZM71.2329 50.2978C70.3532 50.2978 69.9949 49.2574 69.9949 48.0868C69.9949 45.8433 71.5913 41.909 73.2528 41.909C73.9696 41.909 74.2302 42.7544 74.2302 43.8274C74.2628 46.1685 72.7967 50.2978 71.2329 50.2978Z" fill="url(#paint3_radial_1303_8899)"/>
<path d="M79.5733 47.2089C79.4756 47.2089 79.3779 47.274 79.3127 47.4365C78.6611 49.3224 77.7489 50.4604 76.9995 50.4604C76.576 50.4604 76.4131 49.9727 76.4131 49.2574C76.4131 47.404 77.5208 43.4697 78.0747 41.6489C78.1398 41.4213 78.1724 41.2262 78.1724 41.0637C78.1724 40.5434 77.8792 40.2833 77.1624 40.2833C76.4131 40.2833 75.566 40.5759 74.7841 41.9741C74.5235 40.7385 73.6764 40.2183 72.5035 40.2183C71.1677 40.2183 69.8645 41.0962 68.7894 42.4943C67.7143 43.8924 66.4436 44.3476 65.4988 44.12C66.183 42.4618 66.4436 41.1937 66.4436 40.2833C66.4436 38.8201 65.7269 37.9422 64.554 37.9422C62.7947 37.9422 61.7847 39.633 61.7847 41.3888C61.7847 42.7544 62.4037 44.1526 63.7721 44.8354C62.6318 47.404 60.9702 49.7451 60.3186 49.7451C59.5041 49.7451 59.2435 45.7458 59.3087 42.8845C59.3412 41.2587 59.4715 41.1612 59.4715 40.6735C59.4715 40.3808 59.2761 40.1858 58.5267 40.1858C56.8 40.1858 56.2461 41.6489 56.181 43.3397C56.1484 43.99 56.0507 44.6078 55.8878 45.2255C55.171 47.7942 53.6723 49.7776 52.6949 49.7776C52.2388 49.7776 52.1085 49.3224 52.1085 48.7371C52.1085 46.8838 53.1511 44.5427 53.1511 42.5593C53.1511 41.0962 52.4995 40.1858 51.294 40.1858C49.8605 40.1858 48.0034 41.8765 46.2115 45.0304C46.798 42.6244 47.026 40.2833 45.2993 40.2833C44.9083 40.2833 44.55 40.3808 44.2242 40.5759C43.9961 40.6735 43.8658 40.9011 43.8658 41.1612C44.0287 43.7299 41.7807 50.3304 39.663 50.3304C39.272 50.3304 39.0765 49.9077 39.0765 49.2249C39.0765 47.3715 40.1843 43.4372 40.7381 41.6164C40.8033 41.3888 40.8359 41.1937 40.8359 40.9986C40.8359 40.5109 40.5426 40.2508 39.8259 40.2508C39.0765 40.2508 38.2295 40.5434 37.4475 41.9416C37.1543 40.706 36.3398 40.1858 35.167 40.1858C33.2447 40.1858 31.127 42.2017 30.1822 44.8354C28.9116 48.347 26.403 51.761 22.9821 51.761C19.887 51.761 18.258 49.1923 18.258 45.128C18.258 39.2428 22.5911 34.4632 25.7839 34.4632C27.3152 34.4632 28.032 35.4386 28.032 36.9343C28.032 38.7551 27.022 39.568 27.022 40.2833C27.022 40.4784 27.1849 40.706 27.5433 40.706C28.9442 40.706 30.5732 39.0803 30.5732 36.8367C30.5732 34.5932 28.8139 33 25.621 33C20.3105 33 15 38.2999 15 45.128C15 50.558 17.6716 53.8094 22.2979 53.8094C25.4581 53.8094 28.2274 51.3708 29.6935 48.5095C29.8564 50.8831 30.9316 52.1187 32.5931 52.1187C34.0592 52.1187 35.2321 51.2408 36.1443 49.7126C36.5027 51.3058 37.415 52.0861 38.6204 52.0861C39.9888 52.0861 41.1617 51.2082 42.2368 49.615C42.2368 50.8831 42.4974 52.0861 43.6051 52.0861C44.1264 52.0861 44.7454 51.9561 44.8432 51.5009C46.0161 46.7212 48.8831 42.7869 49.7627 42.7869C50.0234 42.7869 50.0885 43.0471 50.0885 43.3397C50.0885 44.6403 49.1763 47.3065 49.1763 48.9972C49.1763 50.8506 49.9582 52.0536 51.5872 52.0536C53.3791 52.0536 55.2036 49.8751 56.409 46.6562C56.8 49.6475 57.6145 52.0536 58.8851 52.0536C60.4489 52.0536 63.2834 48.7371 64.9776 45.2255C65.6291 45.3231 66.6391 45.2906 67.6165 44.6078C67.193 45.6482 66.9649 46.7862 66.9649 47.8917C66.9649 51.1432 68.5288 52.0536 69.8645 52.0536C71.3306 52.0536 72.5035 51.1757 73.4157 49.6475C73.709 51.0132 74.4909 52.0211 75.8918 52.0211C78.0747 52.0211 79.9969 49.7776 79.9969 47.9243C80.0295 47.5341 79.8014 47.2089 79.5733 47.2089ZM33.9615 50.2978C33.0818 50.2978 32.7235 49.4199 32.7235 48.0868C32.7235 45.7783 34.3199 41.909 35.9814 41.909C36.6982 41.909 36.9914 42.7544 36.9914 43.8274C36.9914 46.1685 35.4928 50.2978 33.9615 50.2978ZM64.3585 43.4047C63.8373 42.7869 63.6418 41.909 63.6418 41.1612C63.6418 40.2183 64.0002 39.4379 64.3911 39.4379C64.7821 39.4379 64.945 39.8281 64.945 40.4134C64.9124 41.3238 64.5866 42.7219 64.3585 43.4047ZM71.2329 50.2978C70.3532 50.2978 69.9949 49.2574 69.9949 48.0868C69.9949 45.8433 71.5913 41.909 73.2528 41.909C73.9696 41.909 74.2302 42.7544 74.2302 43.8274C74.2628 46.1685 72.7967 50.2978 71.2329 50.2978Z" fill="url(#paint4_radial_1303_8899)"/>
<path d="M79.5733 47.2089C79.4756 47.2089 79.3779 47.274 79.3127 47.4365C78.6611 49.3224 77.7489 50.4604 76.9995 50.4604C76.576 50.4604 76.4131 49.9727 76.4131 49.2574C76.4131 47.404 77.5208 43.4697 78.0747 41.6489C78.1398 41.4213 78.1724 41.2262 78.1724 41.0637C78.1724 40.5434 77.8792 40.2833 77.1624 40.2833C76.4131 40.2833 75.566 40.5759 74.7841 41.9741C74.5235 40.7385 73.6764 40.2183 72.5035 40.2183C71.1677 40.2183 69.8645 41.0962 68.7894 42.4943C67.7143 43.8924 66.4436 44.3476 65.4988 44.12C66.183 42.4618 66.4436 41.1937 66.4436 40.2833C66.4436 38.8201 65.7269 37.9422 64.554 37.9422C62.7947 37.9422 61.7847 39.633 61.7847 41.3888C61.7847 42.7544 62.4037 44.1526 63.7721 44.8354C62.6318 47.404 60.9702 49.7451 60.3186 49.7451C59.5041 49.7451 59.2435 45.7458 59.3087 42.8845C59.3412 41.2587 59.4715 41.1612 59.4715 40.6735C59.4715 40.3808 59.2761 40.1858 58.5267 40.1858C56.8 40.1858 56.2461 41.6489 56.181 43.3397C56.1484 43.99 56.0507 44.6078 55.8878 45.2255C55.171 47.7942 53.6723 49.7776 52.6949 49.7776C52.2388 49.7776 52.1085 49.3224 52.1085 48.7371C52.1085 46.8838 53.1511 44.5427 53.1511 42.5593C53.1511 41.0962 52.4995 40.1858 51.294 40.1858C49.8605 40.1858 48.0034 41.8765 46.2115 45.0304C46.798 42.6244 47.026 40.2833 45.2993 40.2833C44.9083 40.2833 44.55 40.3808 44.2242 40.5759C43.9961 40.6735 43.8658 40.9011 43.8658 41.1612C44.0287 43.7299 41.7807 50.3304 39.663 50.3304C39.272 50.3304 39.0765 49.9077 39.0765 49.2249C39.0765 47.3715 40.1843 43.4372 40.7381 41.6164C40.8033 41.3888 40.8359 41.1937 40.8359 40.9986C40.8359 40.5109 40.5426 40.2508 39.8259 40.2508C39.0765 40.2508 38.2295 40.5434 37.4475 41.9416C37.1543 40.706 36.3398 40.1858 35.167 40.1858C33.2447 40.1858 31.127 42.2017 30.1822 44.8354C28.9116 48.347 26.403 51.761 22.9821 51.761C19.887 51.761 18.258 49.1923 18.258 45.128C18.258 39.2428 22.5911 34.4632 25.7839 34.4632C27.3152 34.4632 28.032 35.4386 28.032 36.9343C28.032 38.7551 27.022 39.568 27.022 40.2833C27.022 40.4784 27.1849 40.706 27.5433 40.706C28.9442 40.706 30.5732 39.0803 30.5732 36.8367C30.5732 34.5932 28.8139 33 25.621 33C20.3105 33 15 38.2999 15 45.128C15 50.558 17.6716 53.8094 22.2979 53.8094C25.4581 53.8094 28.2274 51.3708 29.6935 48.5095C29.8564 50.8831 30.9316 52.1187 32.5931 52.1187C34.0592 52.1187 35.2321 51.2408 36.1443 49.7126C36.5027 51.3058 37.415 52.0861 38.6204 52.0861C39.9888 52.0861 41.1617 51.2082 42.2368 49.615C42.2368 50.8831 42.4974 52.0861 43.6051 52.0861C44.1264 52.0861 44.7454 51.9561 44.8432 51.5009C46.0161 46.7212 48.8831 42.7869 49.7627 42.7869C50.0234 42.7869 50.0885 43.0471 50.0885 43.3397C50.0885 44.6403 49.1763 47.3065 49.1763 48.9972C49.1763 50.8506 49.9582 52.0536 51.5872 52.0536C53.3791 52.0536 55.2036 49.8751 56.409 46.6562C56.8 49.6475 57.6145 52.0536 58.8851 52.0536C60.4489 52.0536 63.2834 48.7371 64.9776 45.2255C65.6291 45.3231 66.6391 45.2906 67.6165 44.6078C67.193 45.6482 66.9649 46.7862 66.9649 47.8917C66.9649 51.1432 68.5288 52.0536 69.8645 52.0536C71.3306 52.0536 72.5035 51.1757 73.4157 49.6475C73.709 51.0132 74.4909 52.0211 75.8918 52.0211C78.0747 52.0211 79.9969 49.7776 79.9969 47.9243C80.0295 47.5341 79.8014 47.2089 79.5733 47.2089ZM33.9615 50.2978C33.0818 50.2978 32.7235 49.4199 32.7235 48.0868C32.7235 45.7783 34.3199 41.909 35.9814 41.909C36.6982 41.909 36.9914 42.7544 36.9914 43.8274C36.9914 46.1685 35.4928 50.2978 33.9615 50.2978ZM64.3585 43.4047C63.8373 42.7869 63.6418 41.909 63.6418 41.1612C63.6418 40.2183 64.0002 39.4379 64.3911 39.4379C64.7821 39.4379 64.945 39.8281 64.945 40.4134C64.9124 41.3238 64.5866 42.7219 64.3585 43.4047ZM71.2329 50.2978C70.3532 50.2978 69.9949 49.2574 69.9949 48.0868C69.9949 45.8433 71.5913 41.909 73.2528 41.909C73.9696 41.909 74.2302 42.7544 74.2302 43.8274C74.2628 46.1685 72.7967 50.2978 71.2329 50.2978Z" fill="url(#paint5_radial_1303_8899)"/>
</g>
<defs>
<filter id="filter0_d_1303_8899" x="0.268555" y="0.296875" width="94.4717" height="90.2676" filterUnits="userSpaceOnUse" color-interpolation-filters="sRGB">
<feFlood flood-opacity="0" result="BackgroundImageFix"/>
<feColorMatrix in="SourceAlpha" type="matrix" values="0 0 0 0 0 0 0 0 0 0 0 0 0 0 0 0 0 0 127 0" result="hardAlpha"/>
<feOffset dy="2"/>
<feGaussianBlur stdDeviation="2"/>
<feComposite in2="hardAlpha" operator="out"/>
<feColorMatrix type="matrix" values="0 0 0 0 0 0 0 0 0 0 0 0 0 0 0 0 0 0 0.15 0"/>
<feBlend mode="normal" in2="BackgroundImageFix" result="effect1_dropShadow_1303_8899"/>
<feBlend mode="normal" in="SourceGraphic" in2="effect1_dropShadow_1303_8899" result="shape"/>
</filter>
<linearGradient id="paint0_linear_1303_8899" x1="79.3098" y1="54.1688" x2="25.2269" y2="41.2723" gradientUnits="userSpaceOnUse">
<stop stop-color="#7D2AE7"/>
<stop offset="0.7708" stop-color="#7D2AE7"/>
<stop offset="1" stop-color="#7D2AE7" stop-opacity="0"/>
</linearGradient>
<radialGradient id="paint1_radial_1303_8899" cx="0" cy="0" r="1" gradientUnits="userSpaceOnUse" gradientTransform="translate(48.2909 56.0663) rotate(-45.7496) scale(19.5669 13.0046)">
<stop stop-color="#6420FF"/>
<stop offset="1" stop-color="#6420FF" stop-opacity="0"/>
</radialGradient>
<radialGradient id="paint2_radial_1303_8899" cx="0" cy="0" r="1" gradientUnits="userSpaceOnUse" gradientTransform="translate(16.5562 46.8592) rotate(5.07814) scale(38.1198 30.3225)">
<stop offset="0.25" stop-color="#00C4CC"/>
<stop offset="1" stop-color="#00C4CC" stop-opacity="0"/>
</radialGradient>
<radialGradient id="paint3_radial_1303_8899" cx="0" cy="0" r="1" gradientUnits="userSpaceOnUse" gradientTransform="translate(42.7511 53.7939) rotate(-38.7933) scale(24.546 16.7766)">
<stop stop-color="#6420FF"/>
<stop offset="1" stop-color="#6420FF" stop-opacity="0"/>
</radialGradient>
<radialGradient id="paint4_radial_1303_8899" cx="0" cy="0" r="1" gradientUnits="userSpaceOnUse" gradientTransform="translate(18.6428 57.4255) rotate(-34.2139) scale(28.6191 19.5545)">
<stop stop-color="#6420FF"/>
<stop offset="1" stop-color="#6420FF" stop-opacity="0"/>
</radialGradient>
<radialGradient id="paint5_radial_1303_8899" cx="0" cy="0" r="1" gradientUnits="userSpaceOnUse" gradientTransform="translate(21.2568 34.9068) rotate(12.4475) scale(56.5951 69.2859)">
<stop stop-color="#00C4CC"/>
<stop offset="1" stop-color="#00C4CC" stop-opacity="0"/>
</radialGradient>
</defs>
</svg>
