<svg width="95" height="91" viewBox="0 0 95 91" fill="none" xmlns="http://www.w3.org/2000/svg">
<g filter="url(#filter0_d_1303_8897)">
<path d="M81.9512 2.75C86.555 2.75 90.2879 6.4821 90.2881 11.0859V75.7764C90.2879 80.3802 86.555 84.1123 81.9512 84.1123H13.0566C8.4529 84.1121 4.72086 80.3801 4.7207 75.7764V11.0859C4.72086 6.4822 8.4529 2.75016 13.0566 2.75H81.9512Z" fill="white" stroke="#747474" stroke-width="0.5"/>
<g clip-path="url(#clip0_1303_8897)">
<path d="M39.3281 73.4688C44.9062 73.4688 49.4062 68.9688 49.4062 63.3906V53.3125H39.3281C33.75 53.3125 29.25 57.8125 29.25 63.3906C29.25 68.9688 33.75 73.4688 39.3281 73.4688Z" fill="#0ACF83"/>
<path d="M29.25 43.2344C29.25 37.6562 33.75 33.1562 39.3281 33.1562H49.4062V53.3125H39.3281C33.75 53.3125 29.25 48.8125 29.25 43.2344Z" fill="#A259FF"/>
<path d="M29.25 23.0781C29.25 17.5 33.75 13 39.3281 13H49.4062V33.1562H39.3281C33.75 33.1562 29.25 28.6562 29.25 23.0781Z" fill="#F24E1E"/>
<path d="M49.4053 13H59.4834C65.0615 13 69.5615 17.5 69.5615 23.0781C69.5615 28.6562 65.0615 33.1562 59.4834 33.1562H49.4053V13Z" fill="#FF7262"/>
<path d="M69.5615 43.2344C69.5615 48.8125 65.0615 53.3125 59.4834 53.3125C53.9053 53.3125 49.4053 48.8125 49.4053 43.2344C49.4053 37.6562 53.9053 33.1562 59.4834 33.1562C65.0615 33.1562 69.5615 37.6562 69.5615 43.2344Z" fill="#1ABCFE"/>
</g>
</g>
<defs>
<filter id="filter0_d_1303_8897" x="0.470703" y="0.5" width="94.0674" height="89.8633" filterUnits="userSpaceOnUse" color-interpolation-filters="sRGB">
<feFlood flood-opacity="0" result="BackgroundImageFix"/>
<feColorMatrix in="SourceAlpha" type="matrix" values="0 0 0 0 0 0 0 0 0 0 0 0 0 0 0 0 0 0 127 0" result="hardAlpha"/>
<feOffset dy="2"/>
<feGaussianBlur stdDeviation="2"/>
<feComposite in2="hardAlpha" operator="out"/>
<feColorMatrix type="matrix" values="0 0 0 0 0 0 0 0 0 0 0 0 0 0 0 0 0 0 0.15 0"/>
<feBlend mode="normal" in2="BackgroundImageFix" result="effect1_dropShadow_1303_8897"/>
<feBlend mode="normal" in="SourceGraphic" in2="effect1_dropShadow_1303_8897" result="shape"/>
</filter>
<clipPath id="clip0_1303_8897">
<rect width="60" height="60" fill="white" transform="translate(18 13)"/>
</clipPath>
</defs>
</svg>
