<svg width="87" height="83" viewBox="0 0 87 83" fill="none" xmlns="http://www.w3.org/2000/svg">
<path d="M77.9805 0.818359C82.5843 0.818359 86.3172 4.55046 86.3174 9.1543V73.8447C86.3172 78.4486 82.5843 82.1807 77.9805 82.1807H9.08594C4.4822 82.1805 0.750157 78.4485 0.75 73.8447V9.1543C0.750157 4.55056 4.4822 0.818518 9.08594 0.818359H77.9805Z" fill="white" stroke="#747474" stroke-width="0.5"/>
<g clip-path="url(#clip0_1557_10086)">
<path d="M18.7088 13.6743L52.2113 11.1649C56.278 10.7789 57.3432 11.0684 59.9575 12.9022L70.7054 20.4301C72.4483 21.6848 73.0293 22.0708 73.0293 23.5185V64.7292C73.0293 67.3351 72.061 68.8793 68.7689 69.0723L29.844 71.3886C27.3265 71.4851 26.1645 71.1956 24.9058 69.5549L17.0627 59.4211C15.6103 57.4908 15.0293 56.1397 15.0293 54.4989V17.8243C15.0293 15.701 15.9976 13.8673 18.7088 13.6743Z" fill="white"/>
<path fill-rule="evenodd" clip-rule="evenodd" d="M52.2113 11.1646L18.7088 13.6739C15.9976 13.8669 15.0293 15.7007 15.0293 17.8239V54.4986C15.0293 56.1393 15.6103 57.587 17.0627 59.4207L24.9058 69.651C26.1645 71.2917 27.4233 71.6778 29.844 71.4847L68.7689 69.1684C72.061 68.9754 73.0293 67.4312 73.0293 64.8254V23.5181C73.0293 22.167 72.5452 21.7809 70.8991 20.6228C70.8022 20.5263 70.7054 20.5263 70.6086 20.4298L59.9575 12.9983C57.44 11.0681 56.3749 10.875 52.2113 11.1646ZM30.7154 22.8426C27.5201 23.0356 26.8423 23.1321 25.0026 21.5879L20.4517 18.0169C19.9675 17.5344 20.1612 16.9553 21.4199 16.8588L53.6637 14.5425C56.3749 14.3495 57.7305 15.2181 58.7956 16.0867L64.3148 20.0437C64.6053 20.1402 65.1862 20.8158 64.4116 20.8158L31.1028 22.8426H30.7154ZM27.036 64.4393V29.4054C27.036 27.8612 27.5201 27.1856 28.8757 27.0891L67.1228 24.8693C68.3815 24.7728 68.9625 25.5449 68.9625 27.0891V61.8335C68.9625 63.3777 68.672 64.6324 66.6386 64.7289L30.0376 66.8521C28.0043 67.0452 27.036 66.2731 27.036 64.4393ZM63.1528 31.3356C63.3465 32.3973 63.1528 33.4589 62.0877 33.5554L60.3448 33.9415V59.8067C58.7956 60.6754 57.44 61.0614 56.278 61.0614C54.4383 61.0614 53.9542 60.4823 52.5018 58.7451L40.8824 40.6008V58.0695L44.5618 58.9381C44.5618 58.9381 44.5618 61.0614 41.657 61.0614L33.5235 61.544C33.3298 61.0614 33.5235 59.9033 34.2981 59.7102L36.4283 59.1312V35.9682L33.5235 35.6787C33.3298 34.6171 33.9108 33.0729 35.5568 32.9763L44.2714 32.3973L56.278 50.7346V34.5205L53.1795 34.1345C52.9859 32.8798 53.8573 31.9147 55.0193 31.8182L63.1528 31.3356Z" fill="black"/>
</g>
<defs>
<clipPath id="clip0_1557_10086">
<rect width="58" height="60.4167" fill="white" transform="translate(15.0293 11.0684)"/>
</clipPath>
</defs>
</svg>
