<svg width="95" height="91" viewBox="0 0 95 91" fill="none" xmlns="http://www.w3.org/2000/svg">
<g filter="url(#filter0_d_1303_8898)">
<path d="M81.9512 2.75C86.555 2.75 90.2879 6.4821 90.2881 11.0859V75.7764C90.2879 80.3802 86.555 84.1123 81.9512 84.1123H13.0566C8.4529 84.1121 4.72086 80.3801 4.7207 75.7764V11.0859C4.72086 6.4822 8.4529 2.75016 13.0566 2.75H81.9512Z" fill="white" stroke="#747474" stroke-width="0.5"/>
<g clip-path="url(#clip0_1303_8898)">
<path d="M28.6252 13.75H67.3748C73.2502 13.75 78 18.4998 78 24.3752V61.6248C78 67.5002 73.2502 72.25 67.3748 72.25H28.6252C22.7498 72.25 18 67.5002 18 61.6248V24.3752C18 18.4998 22.7498 13.75 28.6252 13.75Z" fill="#001E36"/>
<path d="M39.5011 28.625C38.7511 28.625 38.0011 28.625 37.2263 28.6503C36.451 28.6752 35.7258 28.6752 35.0508 28.7005C34.3758 28.7253 33.751 28.7253 33.151 28.7502C32.5758 28.775 32.176 28.775 31.7508 28.775C31.576 28.775 31.501 28.8748 31.501 29.0502V54.7752C31.501 55.0002 31.6008 55.1005 31.801 55.1005H36.6511C36.826 55.0752 36.9511 54.9252 36.9258 54.7503V46.7253C37.4007 46.7253 37.7508 46.7253 38.0011 46.7502C38.251 46.775 38.6508 46.775 39.2508 46.775C41.3011 46.775 43.1761 46.55 44.8758 45.9252C46.501 45.3252 47.9011 44.2752 48.901 42.875C49.901 41.475 50.401 39.7 50.401 37.55C50.401 36.425 50.2013 35.3502 49.8263 34.3002C49.4289 33.2304 48.8065 32.2585 48.001 31.4502C47.0503 30.5265 45.9059 29.8262 44.6508 29.3998C43.2507 28.8748 41.551 28.625 39.5011 28.625ZM40.0589 33.5492C40.9496 33.5661 41.8168 33.7217 42.6258 34.0498C43.351 34.325 43.951 34.8252 44.3761 35.4748C44.7749 36.1472 44.9743 36.9191 44.9513 37.7005C44.9513 38.8002 44.701 39.6505 44.176 40.2753C43.6257 40.9002 42.9258 41.3755 42.1261 41.6005C41.2008 41.9005 40.2258 42.05 39.2508 42.05H37.9257C37.6257 42.05 37.3013 42.0252 36.9511 42.0003V33.6003C37.126 33.575 37.4761 33.5502 37.9763 33.5755C38.4511 33.5502 39.0258 33.5502 39.676 33.5502C39.8041 33.547 39.9318 33.5467 40.0589 33.5492ZM61.0261 34.8256C59.251 34.8256 57.7758 35.1003 56.6011 35.7003C55.5263 36.2005 54.601 37.0002 53.9761 38C53.4263 38.9253 53.1258 39.95 53.1258 41.0253C53.1045 41.9097 53.302 42.7857 53.701 43.5753C54.1685 44.4161 54.8177 45.142 55.6013 45.7002C56.701 46.4523 57.8944 47.0575 59.1511 47.5002C60.376 47.975 61.201 48.35 61.6013 48.6748C62.0011 49.0002 62.2013 49.325 62.2013 49.6752C62.2013 50.1252 61.9261 50.5503 61.5263 50.7252C61.0763 50.9502 60.4013 51.0753 59.4511 51.0753C58.4513 51.0753 57.451 50.9502 56.5008 50.7003C55.4098 50.4567 54.3638 50.0434 53.401 49.4755C53.326 49.4253 53.251 49.4005 53.176 49.4506C53.101 49.5003 53.0761 49.6002 53.0761 49.6752V54.0252C53.0513 54.2253 53.176 54.4002 53.3513 54.5C54.162 54.8787 55.0195 55.1478 55.9013 55.3002C57.0263 55.5252 58.1508 55.625 59.3007 55.625C61.1007 55.625 62.6011 55.3503 63.826 54.8253C64.951 54.3753 65.926 53.6005 66.6258 52.6002C67.2813 51.6168 67.6214 50.4569 67.6008 49.2753C67.6255 48.3827 67.428 47.4979 67.0261 46.7005C66.5508 45.8502 65.8758 45.1503 65.0508 44.6253C63.8439 43.8674 62.5517 43.2547 61.201 42.8C60.5978 42.5504 60.0055 42.2751 59.4258 41.975C59.101 41.8002 58.801 41.5752 58.576 41.3C58.426 41.0998 58.3261 40.8753 58.3261 40.6503C58.3261 40.4253 58.4011 40.1755 58.5258 39.9753C58.7011 39.7255 58.9758 39.5502 59.3007 39.4752C59.776 39.3505 60.301 39.275 60.8007 39.2998C61.7508 39.2998 62.6757 39.425 63.601 39.6252C64.4513 39.8 65.251 40.0752 66.001 40.4755C66.1008 40.5252 66.226 40.5252 66.451 40.4755C66.49 40.4465 66.5217 40.4088 66.5435 40.3653C66.5652 40.3218 66.5764 40.2738 66.5761 40.2252V36.1503C66.5761 36.05 66.5508 35.9502 66.526 35.8503C66.4758 35.7505 66.376 35.6502 66.2761 35.6253C65.5866 35.3435 64.8641 35.1502 64.126 35.0502C63.0995 34.9007 62.0635 34.826 61.0261 34.8256Z" fill="#31A8FF"/>
</g>
</g>
<defs>
<filter id="filter0_d_1303_8898" x="0.470703" y="0.5" width="94.0674" height="89.8633" filterUnits="userSpaceOnUse" color-interpolation-filters="sRGB">
<feFlood flood-opacity="0" result="BackgroundImageFix"/>
<feColorMatrix in="SourceAlpha" type="matrix" values="0 0 0 0 0 0 0 0 0 0 0 0 0 0 0 0 0 0 127 0" result="hardAlpha"/>
<feOffset dy="2"/>
<feGaussianBlur stdDeviation="2"/>
<feComposite in2="hardAlpha" operator="out"/>
<feColorMatrix type="matrix" values="0 0 0 0 0 0 0 0 0 0 0 0 0 0 0 0 0 0 0.15 0"/>
<feBlend mode="normal" in2="BackgroundImageFix" result="effect1_dropShadow_1303_8898"/>
<feBlend mode="normal" in="SourceGraphic" in2="effect1_dropShadow_1303_8898" result="shape"/>
</filter>
<clipPath id="clip0_1303_8898">
<rect width="60" height="60" fill="white" transform="translate(18 13)"/>
</clipPath>
</defs>
</svg>
