<svg width="95" height="91" viewBox="0 0 95 91" fill="none" xmlns="http://www.w3.org/2000/svg">
<g filter="url(#filter0_d_1458_10233)">
<path d="M81.9512 2.64844C86.6109 2.64844 90.3885 6.42623 90.3887 11.0859V75.7764C90.3885 80.4361 86.6109 84.2139 81.9512 84.2139H13.0566C8.39703 84.2137 4.6193 80.436 4.61914 75.7764V11.0859C4.6193 6.42633 8.39703 2.6486 13.0566 2.64844H81.9512Z" fill="white" stroke="#747474" stroke-width="0.702308"/>
<path d="M31.0909 17.7876L48 16L64.909 17.7876L78 35.361L48 70.2957L18 35.361L31.0909 17.7876Z" fill="#FDB300"/>
<path d="M30.1515 35.3613L48 70.296L18 35.3613H30.1515Z" fill="#EA6C00"/>
<path d="M65.8485 35.3613L48 70.296L78 35.3613H65.8485Z" fill="#EA6C00"/>
<path d="M30.1514 35.3613H65.8484L47.9999 70.296L30.1514 35.3613Z" fill="#FDAD00"/>
<path d="M47.9999 16L31.0907 17.7876L30.1514 35.361L47.9999 16Z" fill="#FDD231"/>
<path d="M48.0001 16L64.9093 17.7876L65.8486 35.361L48.0001 16Z" fill="#FDD231"/>
<path d="M78 35.3605L64.909 17.7871L65.8485 35.3605H78Z" fill="#FDAD00"/>
<path d="M18 35.3605L31.0908 17.7871L30.1515 35.3605H18Z" fill="#FDAD00"/>
<path d="M47.9999 16L30.1514 35.361H65.8484L47.9999 16Z" fill="#FEEEB7"/>
</g>
<defs>
<filter id="filter0_d_1458_10233" x="0.268555" y="0.296875" width="94.4717" height="90.2676" filterUnits="userSpaceOnUse" color-interpolation-filters="sRGB">
<feFlood flood-opacity="0" result="BackgroundImageFix"/>
<feColorMatrix in="SourceAlpha" type="matrix" values="0 0 0 0 0 0 0 0 0 0 0 0 0 0 0 0 0 0 127 0" result="hardAlpha"/>
<feOffset dy="2"/>
<feGaussianBlur stdDeviation="2"/>
<feComposite in2="hardAlpha" operator="out"/>
<feColorMatrix type="matrix" values="0 0 0 0 0 0 0 0 0 0 0 0 0 0 0 0 0 0 0.15 0"/>
<feBlend mode="normal" in2="BackgroundImageFix" result="effect1_dropShadow_1458_10233"/>
<feBlend mode="normal" in="SourceGraphic" in2="effect1_dropShadow_1458_10233" result="shape"/>
</filter>
</defs>
</svg>
